<mxfile host="app.diagrams.net" modified="2022-10-13T19:49:27.674Z" agent="5.0 (Windows)" etag="Cf4pWQXU5GQ8Onnjw8cD" version="20.2.4" type="github">
  <diagram id="JPg_sGbtWYtIUWW4kJTN" name="Page-1">
    <mxGraphModel dx="1102" dy="1672" grid="1" gridSize="10" guides="1" tooltips="1" connect="1" arrows="1" fold="1" page="1" pageScale="1" pageWidth="850" pageHeight="1100" math="0" shadow="0">
      <root>
        <mxCell id="0" />
        <mxCell id="1" parent="0" />
        <mxCell id="aMdTHghUDtawwnR4owCq-1" value="" style="rounded=0;whiteSpace=wrap;html=1;" vertex="1" parent="1">
          <mxGeometry y="-1080" width="640" height="1270" as="geometry" />
        </mxCell>
        <mxCell id="aMdTHghUDtawwnR4owCq-2" value="&lt;b style=&quot;font-size: 14px;&quot;&gt;&lt;font style=&quot;font-size: 14px;&quot; face=&quot;Times New Roman&quot;&gt;Pemberian Saran&lt;br&gt;&lt;/font&gt;&lt;/b&gt;" style="rounded=0;whiteSpace=wrap;html=1;fontSize=14;" vertex="1" parent="1">
          <mxGeometry y="-1080" width="640" height="30" as="geometry" />
        </mxCell>
        <mxCell id="aMdTHghUDtawwnR4owCq-3" value="&lt;font style=&quot;font-size: 14px;&quot; face=&quot;Times New Roman&quot;&gt;&lt;b&gt;Member&lt;/b&gt;&lt;/font&gt;" style="rounded=0;whiteSpace=wrap;html=1;fontSize=14;" vertex="1" parent="1">
          <mxGeometry y="-1050" width="320" height="30" as="geometry" />
        </mxCell>
        <mxCell id="aMdTHghUDtawwnR4owCq-4" value="&lt;b&gt;&lt;font face=&quot;Times New Roman&quot;&gt;Konsumen&lt;/font&gt;&lt;/b&gt;" style="rounded=0;whiteSpace=wrap;html=1;fontSize=14;" vertex="1" parent="1">
          <mxGeometry x="320" y="-1050" width="320" height="30" as="geometry" />
        </mxCell>
        <mxCell id="aMdTHghUDtawwnR4owCq-5" value="" style="rounded=0;whiteSpace=wrap;html=1;fontFamily=Times New Roman;fontSize=14;" vertex="1" parent="1">
          <mxGeometry y="-1020" width="320" height="1210" as="geometry" />
        </mxCell>
        <mxCell id="aMdTHghUDtawwnR4owCq-6" value="Memberikan saran terhadap suatu konten" style="rounded=1;whiteSpace=wrap;html=1;absoluteArcSize=1;arcSize=14;strokeWidth=2;fontFamily=Times New Roman;fontSize=20;" vertex="1" parent="1">
          <mxGeometry x="55" y="-860" width="215" height="100" as="geometry" />
        </mxCell>
        <mxCell id="aMdTHghUDtawwnR4owCq-7" value="Mulai" style="strokeWidth=2;html=1;shape=mxgraph.flowchart.terminator;whiteSpace=wrap;fontFamily=Times New Roman;fontSize=20;" vertex="1" parent="1">
          <mxGeometry x="55" y="-1000" width="215" height="90" as="geometry" />
        </mxCell>
        <mxCell id="aMdTHghUDtawwnR4owCq-8" value="Selesai" style="strokeWidth=2;html=1;shape=mxgraph.flowchart.terminator;whiteSpace=wrap;fontFamily=Times New Roman;fontSize=20;" vertex="1" parent="1">
          <mxGeometry x="82.5" y="90" width="160" height="70" as="geometry" />
        </mxCell>
        <mxCell id="aMdTHghUDtawwnR4owCq-9" value="" style="endArrow=classic;html=1;rounded=0;fontFamily=Times New Roman;fontSize=20;exitX=0.5;exitY=1;exitDx=0;exitDy=0;entryX=0.5;entryY=0;entryDx=0;entryDy=0;entryPerimeter=0;strokeWidth=2;" edge="1" parent="1" source="aMdTHghUDtawwnR4owCq-6" target="aMdTHghUDtawwnR4owCq-13">
          <mxGeometry width="50" height="50" relative="1" as="geometry">
            <mxPoint x="150" y="-705" as="sourcePoint" />
            <mxPoint x="162.50499999999988" y="-720" as="targetPoint" />
          </mxGeometry>
        </mxCell>
        <mxCell id="aMdTHghUDtawwnR4owCq-10" value="" style="endArrow=classic;html=1;rounded=0;fontFamily=Times New Roman;fontSize=20;strokeWidth=2;" edge="1" parent="1" source="aMdTHghUDtawwnR4owCq-7" target="aMdTHghUDtawwnR4owCq-6">
          <mxGeometry width="50" height="50" relative="1" as="geometry">
            <mxPoint x="172.5" y="-750" as="sourcePoint" />
            <mxPoint x="172.50499999999988" y="-710" as="targetPoint" />
          </mxGeometry>
        </mxCell>
        <mxCell id="aMdTHghUDtawwnR4owCq-11" value="" style="endArrow=classic;html=1;rounded=0;fontFamily=Times New Roman;fontSize=20;strokeWidth=2;exitX=0.5;exitY=1;exitDx=0;exitDy=0;entryX=0.5;entryY=0;entryDx=0;entryDy=0;entryPerimeter=0;" edge="1" parent="1" source="aMdTHghUDtawwnR4owCq-17" target="aMdTHghUDtawwnR4owCq-18">
          <mxGeometry width="50" height="50" relative="1" as="geometry">
            <mxPoint x="172.5" y="-900" as="sourcePoint" />
            <mxPoint x="172.5" y="-850" as="targetPoint" />
          </mxGeometry>
        </mxCell>
        <mxCell id="aMdTHghUDtawwnR4owCq-12" value="Tidak" style="endArrow=classic;html=1;rounded=0;fontFamily=Times New Roman;fontSize=20;strokeWidth=2;entryX=0.5;entryY=0;entryDx=0;entryDy=0;entryPerimeter=0;exitX=0.5;exitY=1;exitDx=0;exitDy=0;exitPerimeter=0;" edge="1" parent="1" source="aMdTHghUDtawwnR4owCq-22" target="aMdTHghUDtawwnR4owCq-8">
          <mxGeometry width="50" height="50" relative="1" as="geometry">
            <mxPoint x="160" y="90" as="sourcePoint" />
            <mxPoint x="170" y="-200" as="targetPoint" />
          </mxGeometry>
        </mxCell>
        <mxCell id="aMdTHghUDtawwnR4owCq-13" value="&lt;font style=&quot;font-size: 20px;&quot; face=&quot;Times New Roman&quot;&gt;Hasil saran&lt;br&gt;&lt;/font&gt;" style="strokeWidth=2;html=1;shape=mxgraph.flowchart.document2;whiteSpace=wrap;size=0.25;" vertex="1" parent="1">
          <mxGeometry x="70.84" y="-710" width="183.33" height="110" as="geometry" />
        </mxCell>
        <mxCell id="aMdTHghUDtawwnR4owCq-14" value="" style="edgeStyle=orthogonalEdgeStyle;rounded=0;orthogonalLoop=1;jettySize=auto;html=1;fontFamily=Times New Roman;fontSize=20;" edge="1" parent="1" source="aMdTHghUDtawwnR4owCq-15" target="aMdTHghUDtawwnR4owCq-17">
          <mxGeometry relative="1" as="geometry" />
        </mxCell>
        <mxCell id="aMdTHghUDtawwnR4owCq-15" value="&lt;font style=&quot;font-size: 20px;&quot; face=&quot;Times New Roman&quot;&gt;Hasil saran&lt;/font&gt;" style="strokeWidth=2;html=1;shape=mxgraph.flowchart.document2;whiteSpace=wrap;size=0.25;" vertex="1" parent="1">
          <mxGeometry x="388.34" y="-630" width="183.33" height="110" as="geometry" />
        </mxCell>
        <mxCell id="aMdTHghUDtawwnR4owCq-16" value="" style="endArrow=classic;html=1;rounded=0;fontFamily=Times New Roman;fontSize=20;exitX=1;exitY=0.5;exitDx=0;exitDy=0;entryX=0.5;entryY=0;entryDx=0;entryDy=0;entryPerimeter=0;strokeWidth=2;exitPerimeter=0;" edge="1" parent="1" source="aMdTHghUDtawwnR4owCq-13" target="aMdTHghUDtawwnR4owCq-15">
          <mxGeometry width="50" height="50" relative="1" as="geometry">
            <mxPoint x="173.05498999999986" y="-603.97" as="sourcePoint" />
            <mxPoint x="172.98656000000005" y="-557.94" as="targetPoint" />
            <Array as="points">
              <mxPoint x="480" y="-655" />
            </Array>
          </mxGeometry>
        </mxCell>
        <mxCell id="aMdTHghUDtawwnR4owCq-17" value="Lihat saran" style="rounded=1;whiteSpace=wrap;html=1;absoluteArcSize=1;arcSize=14;strokeWidth=2;fontFamily=Times New Roman;fontSize=20;" vertex="1" parent="1">
          <mxGeometry x="410" y="-470" width="140" height="100" as="geometry" />
        </mxCell>
        <mxCell id="aMdTHghUDtawwnR4owCq-18" value="Berikan tanggapan" style="strokeWidth=2;html=1;shape=mxgraph.flowchart.decision;whiteSpace=wrap;fontFamily=Times New Roman;fontSize=20;" vertex="1" parent="1">
          <mxGeometry x="420" y="-310" width="120" height="120" as="geometry" />
        </mxCell>
        <mxCell id="aMdTHghUDtawwnR4owCq-19" value="" style="endArrow=classic;html=1;rounded=0;fontFamily=Times New Roman;fontSize=20;strokeWidth=2;exitX=0.505;exitY=0.9;exitDx=0;exitDy=0;exitPerimeter=0;" edge="1" parent="1" source="aMdTHghUDtawwnR4owCq-15" target="aMdTHghUDtawwnR4owCq-17">
          <mxGeometry width="50" height="50" relative="1" as="geometry">
            <mxPoint x="480" y="-530" as="sourcePoint" />
            <mxPoint x="172.98656000000005" y="-557.94" as="targetPoint" />
          </mxGeometry>
        </mxCell>
        <mxCell id="aMdTHghUDtawwnR4owCq-20" value="Tidak" style="endArrow=classic;html=1;rounded=0;fontFamily=Times New Roman;fontSize=20;exitX=1;exitY=0.5;exitDx=0;exitDy=0;entryX=1;entryY=0.5;entryDx=0;entryDy=0;entryPerimeter=0;strokeWidth=2;exitPerimeter=0;" edge="1" parent="1" source="aMdTHghUDtawwnR4owCq-18" target="aMdTHghUDtawwnR4owCq-7">
          <mxGeometry width="50" height="50" relative="1" as="geometry">
            <mxPoint x="183.05498999999986" y="-593.97" as="sourcePoint" />
            <mxPoint x="182.98656000000005" y="-547.94" as="targetPoint" />
            <Array as="points">
              <mxPoint x="610" y="-250" />
              <mxPoint x="610" y="-955" />
            </Array>
          </mxGeometry>
        </mxCell>
        <mxCell id="aMdTHghUDtawwnR4owCq-21" value="Menerima tanggapan" style="rounded=1;whiteSpace=wrap;html=1;absoluteArcSize=1;arcSize=14;strokeWidth=2;fontFamily=Times New Roman;fontSize=20;" vertex="1" parent="1">
          <mxGeometry x="92.50000000000001" y="-300" width="140" height="100" as="geometry" />
        </mxCell>
        <mxCell id="aMdTHghUDtawwnR4owCq-22" value="&lt;div&gt;Mentindak &lt;br&gt;&lt;/div&gt;&lt;div&gt;lanjuti tanggapan tersebut&lt;/div&gt;" style="strokeWidth=2;html=1;shape=mxgraph.flowchart.decision;whiteSpace=wrap;fontFamily=Times New Roman;fontSize=20;" vertex="1" parent="1">
          <mxGeometry x="87.5" y="-120" width="150" height="150" as="geometry" />
        </mxCell>
        <mxCell id="aMdTHghUDtawwnR4owCq-23" value="" style="endArrow=classic;html=1;rounded=0;fontFamily=Times New Roman;fontSize=20;strokeWidth=2;exitX=0;exitY=0.5;exitDx=0;exitDy=0;entryX=1;entryY=0.5;entryDx=0;entryDy=0;exitPerimeter=0;" edge="1" parent="1" source="aMdTHghUDtawwnR4owCq-18" target="aMdTHghUDtawwnR4owCq-21">
          <mxGeometry width="50" height="50" relative="1" as="geometry">
            <mxPoint x="490" y="-360" as="sourcePoint" />
            <mxPoint x="490" y="-300" as="targetPoint" />
          </mxGeometry>
        </mxCell>
        <mxCell id="aMdTHghUDtawwnR4owCq-24" value="Iya" style="edgeLabel;html=1;align=center;verticalAlign=middle;resizable=0;points=[];fontSize=20;fontFamily=Times New Roman;" vertex="1" connectable="0" parent="aMdTHghUDtawwnR4owCq-23">
          <mxGeometry x="-0.232" y="3" relative="1" as="geometry">
            <mxPoint as="offset" />
          </mxGeometry>
        </mxCell>
        <mxCell id="aMdTHghUDtawwnR4owCq-25" value="" style="endArrow=classic;html=1;rounded=0;fontFamily=Times New Roman;fontSize=20;strokeWidth=2;exitX=0.5;exitY=1;exitDx=0;exitDy=0;entryX=0.5;entryY=0;entryDx=0;entryDy=0;entryPerimeter=0;" edge="1" parent="1" source="aMdTHghUDtawwnR4owCq-21" target="aMdTHghUDtawwnR4owCq-22">
          <mxGeometry width="50" height="50" relative="1" as="geometry">
            <mxPoint x="430" y="-240" as="sourcePoint" />
            <mxPoint x="242.5" y="-240" as="targetPoint" />
          </mxGeometry>
        </mxCell>
        <mxCell id="aMdTHghUDtawwnR4owCq-26" value="Menghapus atau merubah saran" style="rounded=1;whiteSpace=wrap;html=1;absoluteArcSize=1;arcSize=14;strokeWidth=2;fontFamily=Times New Roman;fontSize=20;" vertex="1" parent="1">
          <mxGeometry x="92.50000000000001" y="-510" width="140" height="100" as="geometry" />
        </mxCell>
        <mxCell id="aMdTHghUDtawwnR4owCq-27" value="" style="endArrow=classic;html=1;rounded=0;fontFamily=Times New Roman;fontSize=20;strokeWidth=2;exitX=0;exitY=0.5;exitDx=0;exitDy=0;entryX=0;entryY=0.5;entryDx=0;entryDy=0;exitPerimeter=0;" edge="1" parent="1" source="aMdTHghUDtawwnR4owCq-22" target="aMdTHghUDtawwnR4owCq-26">
          <mxGeometry width="50" height="50" relative="1" as="geometry">
            <mxPoint x="172.5" y="-190" as="sourcePoint" />
            <mxPoint x="172.5" y="-110" as="targetPoint" />
            <Array as="points">
              <mxPoint x="30" y="-45" />
              <mxPoint x="30" y="-460" />
            </Array>
          </mxGeometry>
        </mxCell>
      </root>
    </mxGraphModel>
  </diagram>
</mxfile>
